<svg width="31" height="27" viewBox="0 0 31 27" fill="none" xmlns="http://www.w3.org/2000/svg">
<path d="M29.9891 0C30.5473 0 31 0.453417 31 1.01256C31 1.57168 30.5475 2.02511 29.9891 2.02511H25.9562C24.2832 6.17556 22.6353 10.3336 20.9757 14.4915L22.5025 18.1722C22.6304 18.4792 22.5944 18.8491 22.4099 19.1254C22.2252 19.4018 21.8975 19.5763 21.5654 19.5749H4.71756C4.18354 19.5824 3.69231 19.0974 3.69231 18.5623C3.69231 18.0274 4.18354 17.5422 4.71756 17.5497H20.0491L19.1753 15.4616L2.94835 14.1644C2.52363 14.131 2.13911 13.7995 2.04272 13.384L0.020853 4.60908C-0.111475 4.01794 0.405849 3.37312 1.0106 3.37498H23.2396L24.3346 0.63281C24.4846 0.261549 24.8719 0 25.2717 0H29.9891ZM22.4286 5.4001H2.28515L3.85405 12.2133L19.2169 13.4368L22.4286 5.4001ZM18.1954 20.25C20.0445 20.25 21.565 21.773 21.565 23.625C21.565 25.477 20.0445 27 18.1954 27C16.3464 27 14.8259 25.477 14.8259 23.625C14.8259 21.773 16.3464 20.25 18.1954 20.25ZM8.08672 20.25C9.93577 20.25 11.4563 21.773 11.4563 23.625C11.4563 25.477 9.93577 27 8.08672 27C6.23767 27 4.71714 25.477 4.71714 23.625C4.71714 21.773 6.23767 20.25 8.08672 20.25ZM18.1954 22.2751C17.4391 22.2751 16.8477 22.8675 16.8477 23.625C16.8477 24.3826 17.4391 24.9749 18.1954 24.9749C18.9518 24.9749 19.5431 24.3823 19.5431 23.625C19.5431 22.8675 18.9515 22.2751 18.1954 22.2751ZM8.08672 22.2751C7.33037 22.2751 6.73901 22.8677 6.73901 23.625C6.73901 24.3826 7.33061 24.9749 8.08672 24.9749C8.84307 24.9749 9.43443 24.3826 9.43443 23.625C9.43443 22.8675 8.84306 22.2751 8.08672 22.2751Z"/>
</svg>
