<svg width="13" height="14" viewBox="0 0 13 14" fill="none" xmlns="http://www.w3.org/2000/svg">
<g clip-path="url(#clip0_994_700)">
<path d="M2.72652 14C2.14136 14 1.68273 13.5478 1.66375 12.9502L1.32847 2.62298H0V1.8994H3.73552V1.1209C3.73552 0.507153 4.23212 0 4.83309 0H8.16375C8.76472 0 9.26131 0.507153 9.26131 1.1209V1.8994H13V2.62298H11.6715L11.3363 12.9534C11.3173 13.551 10.8586 14.0032 10.2735 14.0032H2.72652V14ZM8.5528 1.1209C8.5528 0.904476 8.37567 0.723581 8.16375 0.723581H4.83309C4.62117 0.723581 4.44404 0.904476 4.44404 1.1209V1.8994H8.5528V1.1209ZM10.6277 12.934L10.963 2.62298H2.0528L2.38808 12.934C2.38808 13.1343 2.54623 13.2764 2.74234 13.2764H10.2703C10.4506 13.2764 10.6088 13.1343 10.6277 12.934Z" fill="#3E3D3D"/>
<path d="M6.85449 5.19104H6.14598V10.5985H6.85449V5.19104Z" fill="#3E3D3D"/>
<path d="M8.97949 5.19104H8.27098V10.5985H8.97949V5.19104Z" fill="#3E3D3D"/>
<path d="M4.72852 5.19104H4.02V10.5985H4.72852V5.19104Z" fill="#3E3D3D"/>
</g>
<defs>
<clipPath id="clip0_994_700">
<rect width="13" height="14" fill="white" transform="matrix(-1 0 0 1 13 0)"/>
</clipPath>
</defs>
</svg>
