<svg width="80" height="80" viewBox="0 0 80 80" fill="none" xmlns="http://www.w3.org/2000/svg">
<g clip-path="url(#clip0_414_275)">
<path d="M5.83671 59.889H7.16898L4.12378 56.8438C4.63131 57.8588 5.20229 58.8739 5.83671 59.889Z" fill="#B2B2B2"/>
<path d="M3.86984 56.3363L7.42257 59.889H10.8484L2.03003 51.0706C2.53756 52.847 3.17198 54.6233 3.86984 56.3363Z" fill="#B2B2B2"/>
<path d="M14.9722 48.6598L23.4099 57.0975V54.3061L17.827 48.7232L17.8905 48.6598H14.9722Z" fill="#B2B2B2"/>
<path d="M20.555 48.7232L20.6184 48.6598H18.0173L23.4099 54.0523V51.5781L20.555 48.7232Z" fill="#B2B2B2"/>
<path d="M23.4099 51.3243V48.6598H20.7454L23.4099 51.3243Z" fill="#B2B2B2"/>
<path d="M3.7431 48.7232L3.80654 48.6598H1.39575C1.52264 49.3576 1.71296 49.9921 1.90329 50.6265L11.1023 59.8255H14.8454L3.7431 48.7232Z" fill="#B2B2B2"/>
<path d="M14.7819 48.7232L14.8453 48.6598H11.4829L22.6487 59.889H23.41V57.3513L14.7819 48.7232Z" fill="#B2B2B2"/>
<path d="M11.2925 48.7232L11.356 48.6598H7.80322L18.969 59.889H22.3948L11.2925 48.7232Z" fill="#B2B2B2"/>
<path d="M7.61297 48.7232L7.67641 48.6598H3.93335L15.0991 59.889H18.7153L7.61297 48.7232Z" fill="#B2B2B2"/>
<path d="M71.1816 59.889H73.7828C74.7344 58.2395 75.6226 56.5266 76.3204 54.7502L71.1816 59.889Z" fill="#B2B2B2"/>
<path d="M67.502 59.889H70.9278L76.6376 54.1792C77.272 52.5297 77.7795 50.8803 78.2236 49.1673L67.502 59.889Z" fill="#B2B2B2"/>
<path d="M63.3782 48.6598L55.0039 57.0975V54.3061L60.5868 48.7232L60.5233 48.6598H63.3782Z" fill="#B2B2B2"/>
<path d="M57.7953 48.7232L57.7319 48.6598H60.3965L55.0039 54.0523V51.5781L57.7953 48.7232Z" fill="#B2B2B2"/>
<path d="M55.0039 51.3243V48.6598H57.605L55.0039 51.3243Z" fill="#B2B2B2"/>
<path d="M74.6074 48.7232L74.544 48.6598H78.4139L67.2482 59.889H63.5051L74.6074 48.7232Z" fill="#B2B2B2"/>
<path d="M63.5685 48.7232L63.5051 48.6598H66.9309L55.7018 59.889H55.0039V57.3513L63.5685 48.7232Z" fill="#B2B2B2"/>
<path d="M67.1213 48.7232L67.0579 48.6598H70.5472L59.3814 59.889H55.9556L67.1213 48.7232Z" fill="#B2B2B2"/>
<path d="M70.7376 48.7232L70.6741 48.6598H74.4172L63.2514 59.889H59.6353L70.7376 48.7232Z" fill="#B2B2B2"/>
<path d="M72.8312 47.391H55.131V45.9318H58.6202V44.1554H55.131V27.9778V27.2165H40.7297H37.1769H22.7757V27.9778V44.1554H19.667V45.9318H22.7757V47.391H5.07544V49.1673H22.7757V59.889H24.552V49.1673V28.9929H37.1769H40.7297H53.3546V49.1673V59.889H55.131V49.1673H72.8312V47.391Z" fill="black"/>
<path d="M39.9683 80C17.8906 80 0 62.046 0 40.0317C0 18.0174 17.954 0 39.9683 0C61.9826 0 79.9366 17.954 79.9366 39.9683C79.9366 61.9826 62.046 80 39.9683 80ZM39.9683 1.33228C18.6519 1.33228 1.33228 18.6519 1.33228 39.9683C1.33228 61.2847 18.6519 78.6043 39.9683 78.6043C61.2847 78.6043 78.6043 61.2847 78.6043 39.9683C78.6043 18.6519 61.2847 1.33228 39.9683 1.33228Z" fill="black"/>
</g>
<defs>
<clipPath id="clip0_414_275">
<rect width="80" height="80" fill="white"/>
</clipPath>
</defs>
</svg>
