<svg width="90" height="90" viewBox="0 0 90 90" fill="none" xmlns="http://www.w3.org/2000/svg">
<g clip-path="url(#clip0_414_275)">
<path d="M6.5662 67.3751H8.06501L4.63916 63.9492C5.21014 65.0912 5.85248 66.2331 6.5662 67.3751Z" fill="#B2B2B2"/>
<path d="M4.35372 63.3783L8.35055 67.3751H12.2046L2.28394 57.4544C2.85491 59.4528 3.56863 61.4512 4.35372 63.3783Z" fill="#B2B2B2"/>
<path d="M16.8438 54.7423L26.3362 64.2347V61.0944L20.0555 54.8136L20.1269 54.7423H16.8438Z" fill="#B2B2B2"/>
<path d="M23.1244 54.8136L23.1958 54.7423H20.2695L26.3361 60.8089V58.0254L23.1244 54.8136Z" fill="#B2B2B2"/>
<path d="M26.3362 57.7399V54.7423H23.3386L26.3362 57.7399Z" fill="#B2B2B2"/>
<path d="M4.21083 54.8136L4.2822 54.7423H1.57007C1.71281 55.5274 1.92693 56.2411 2.14104 56.9548L12.49 67.3037H16.7009L4.21083 54.8136Z" fill="#B2B2B2"/>
<path d="M16.6296 54.8136L16.7009 54.7423H12.9182L25.4797 67.3751H26.3361V64.5202L16.6296 54.8136Z" fill="#B2B2B2"/>
<path d="M12.7043 54.8136L12.7756 54.7423H8.77881L21.3403 67.3751H25.1944L12.7043 54.8136Z" fill="#B2B2B2"/>
<path d="M8.56462 54.8136L8.63599 54.7423H4.42505L16.9865 67.3751H21.0547L8.56462 54.8136Z" fill="#B2B2B2"/>
<path d="M80.0793 67.3751H83.0056C84.0762 65.5194 85.0754 63.5924 85.8605 61.594L80.0793 67.3751Z" fill="#B2B2B2"/>
<path d="M75.9397 67.3751H79.7938L86.2173 60.9516C86.931 59.096 87.502 57.2403 88.0016 55.3132L75.9397 67.3751Z" fill="#B2B2B2"/>
<path d="M71.3005 54.7423L61.8794 64.2347V61.0944L68.1601 54.8136L68.0888 54.7423H71.3005Z" fill="#B2B2B2"/>
<path d="M65.0198 54.8136L64.9484 54.7423H67.946L61.8794 60.8089V58.0254L65.0198 54.8136Z" fill="#B2B2B2"/>
<path d="M61.8794 57.7399V54.7423H64.8056L61.8794 57.7399Z" fill="#B2B2B2"/>
<path d="M83.9334 54.8136L83.8621 54.7423H88.2158L75.6543 67.3751H71.4434L83.9334 54.8136Z" fill="#B2B2B2"/>
<path d="M71.5146 54.8136L71.4432 54.7423H75.2973L62.6645 67.3751H61.8794V64.5202L71.5146 54.8136Z" fill="#B2B2B2"/>
<path d="M75.5114 54.8136L75.44 54.7423H79.3655L66.804 67.3751H62.95L75.5114 54.8136Z" fill="#B2B2B2"/>
<path d="M79.5797 54.8136L79.5083 54.7423H83.7193L71.1578 67.3751H67.0896L79.5797 54.8136Z" fill="#B2B2B2"/>
<path d="M81.9349 53.3148H62.0222V51.6733H65.9476V49.6749H62.0222V31.475V30.6186H45.8207H41.8239H25.6225V31.475V49.6749H22.1253V51.6733H25.6225V53.3148H5.70972V55.3132H25.6225V67.3751H27.6209V55.3132V32.617H41.8239H45.8207H60.0238V55.3132V67.3751H62.0222V55.3132H81.9349V53.3148Z" fill="black"/>
<path d="M44.9643 90C20.1269 90 0 69.8018 0 45.0357C0 20.2696 20.1983 0 44.9643 0C69.7304 0 89.9286 20.1983 89.9286 44.9643C89.9286 69.7304 69.8017 90 44.9643 90ZM44.9643 1.49881C20.9833 1.49881 1.49881 20.9833 1.49881 44.9643C1.49881 68.9453 20.9833 88.4298 44.9643 88.4298C68.9453 88.4298 88.4298 68.9453 88.4298 44.9643C88.4298 20.9833 68.9453 1.49881 44.9643 1.49881Z" fill="black"/>
</g>
<defs>
<clipPath id="clip0_414_275">
<rect width="90" height="90" fill="white"/>
</clipPath>
</defs>
</svg>
