<svg width="12" height="16" viewBox="0 0 11 14" fill="none" xmlns="http://www.w3.org/2000/svg">
<g clip-path="url(#clip0_1402_180)">
<path d="M4.45721 14C4.39257 14 4.33152 13.9809 4.27406 13.9466C4.16991 13.8779 4.10527 13.7557 4.10527 13.626V8.03817L0.0615227 1.70229C-0.00311976 1.59924 -0.0174848 1.46947 0.0256102 1.35496L0.442195 0.236641C0.496064 0.091603 0.625349 0 0.768999 0H10.2571C10.4043 0 10.5372 0.0992366 10.5875 0.244275L10.9753 1.3626C11.0148 1.4771 11.0005 1.60305 10.9358 1.70229L6.86694 8.03817V12.4885C6.86694 12.6298 6.79512 12.7557 6.67661 12.8206L4.61523 13.958C4.56854 13.9847 4.51467 14 4.45721 14ZM0.747451 1.44656L4.7481 7.71374C4.78761 7.77481 4.80916 7.84733 4.80916 7.92366V13.0115L6.16665 12.2634V7.92366C6.16665 7.84733 6.1882 7.77481 6.2277 7.71374L10.2535 1.43893L10.0129 0.744275H1.00961L0.747451 1.44656Z" />
</g>
<defs>
<clipPath id="clip0_1402_180">
<rect width="12" height="16" fill="white"/>
</clipPath>
</defs>
</svg>
