<svg width="80" height="80" viewBox="0 0 80 80" fill="none" xmlns="http://www.w3.org/2000/svg">
<g clip-path="url(#clip0_414_316)">
<path d="M50.3093 24.3616C49.8018 24.3616 49.4211 24.7423 49.4211 25.2498C49.4211 25.7573 49.8018 26.138 50.3093 26.138H54.8137V30.3886H24.552V26.138H29.0563C29.5639 26.138 29.9445 25.7573 29.9445 25.2498C29.9445 24.7423 29.5639 24.3616 29.0563 24.3616H22.7122V70.801C22.7122 71.3085 23.0928 71.6891 23.6003 71.6891C24.1079 71.6891 24.4885 71.3085 24.4885 70.801V37.8113H54.7502V70.801C54.7502 71.3085 55.1309 71.6891 55.6384 71.6891C56.1459 71.6891 56.5266 71.3085 56.5266 70.801V24.3616H50.3093ZM24.552 36.9231V31.3402H54.8137V36.9231H24.552Z" fill="black"/>
<path d="M49.1672 13.1959H43.0134L31.8477 24.3616H37.9381L49.1672 13.1959Z" fill="#B2B2B2"/>
<path d="M42.7596 13.1959H36.8596L25.6304 24.3616H31.5939L42.7596 13.1959Z" fill="#B2B2B2"/>
<path d="M55.3846 13.1959H49.4211L38.1919 24.3616H44.1554L55.3846 13.1959Z" fill="#B2B2B2"/>
<path d="M6.85156 24.3616H12.8785L24.1077 13.1959H18.0173L6.85156 24.3616Z" fill="#B2B2B2"/>
<path d="M30.2616 13.1959H24.3615L13.1323 24.3616H19.0958L30.2616 13.1959Z" fill="#B2B2B2"/>
<path d="M36.6058 13.1959H30.5788L19.3496 24.3616H25.3766L36.6058 13.1959Z" fill="#B2B2B2"/>
<path d="M61.7288 13.1959H55.6384L44.4092 24.3616H50.4996L61.7288 13.1959Z" fill="#B2B2B2"/>
<path d="M17.7636 13.1959H11.2291C8.18395 16.4314 5.70972 20.2379 3.93335 24.3616H6.5979L17.7636 13.1959Z" fill="#B2B2B2"/>
<path d="M69.5955 24.3616H76.0665C75.4321 22.9025 74.6708 21.4433 73.9095 20.111L69.5955 24.3616Z" fill="#B2B2B2"/>
<path d="M73.7826 19.9207C73.0213 18.7153 72.26 17.5099 71.3718 16.368L63.3782 24.3616H69.3417L73.7826 19.9207Z" fill="#B2B2B2"/>
<path d="M67.9461 13.1959H61.9826L50.7534 24.3616H56.7169L67.9461 13.1959Z" fill="#B2B2B2"/>
<path d="M71.3085 16.2411C70.4838 15.1626 69.659 14.1475 68.7709 13.1959H68.1999L56.9707 24.3616H63.1245L71.3085 16.2411Z" fill="#B2B2B2"/>
<path d="M39.9683 80C17.8906 80 0 62.046 0 40.0317C0 18.0174 17.954 0 39.9683 0C62.046 0 79.9366 17.954 79.9366 39.9683C79.9366 61.9826 62.046 80 39.9683 80ZM39.9683 1.33228C18.6519 1.33228 1.33228 18.6519 1.33228 39.9683C1.33228 61.2847 18.6519 78.6043 39.9683 78.6043C61.2847 78.6043 78.6043 61.2847 78.6043 39.9683C78.6043 18.6519 61.2847 1.33228 39.9683 1.33228Z" fill="black"/>
</g>
<defs>
<clipPath id="clip0_414_316">
<rect width="80" height="80" fill="white"/>
</clipPath>
</defs>
</svg>
