<svg width="90" height="90" viewBox="0 0 90 90" fill="none" xmlns="http://www.w3.org/2000/svg">
<g clip-path="url(#clip0_414_316)">
<path d="M56.5981 27.4068C56.0271 27.4068 55.5989 27.8351 55.5989 28.406C55.5989 28.977 56.0271 29.4052 56.5981 29.4052H61.6655V34.1872H27.6211V29.4052H32.6885C33.2594 29.4052 33.6877 28.977 33.6877 28.406C33.6877 27.8351 33.2594 27.4068 32.6885 27.4068H25.5513V79.6511C25.5513 80.222 25.9795 80.6503 26.5505 80.6503C27.1215 80.6503 27.5497 80.222 27.5497 79.6511V42.5377H61.5941V79.6511C61.5941 80.222 62.0223 80.6503 62.5933 80.6503C63.1643 80.6503 63.5925 80.222 63.5925 79.6511V27.4068H56.5981ZM27.6211 41.5385V35.2577H61.6655V41.5385H27.6211Z" fill="black"/>
<path d="M55.3131 14.8454H48.3901L35.8286 27.4068H42.6803L55.3131 14.8454Z" fill="#B2B2B2"/>
<path d="M48.1046 14.8454H41.4671L28.8342 27.4068H35.5432L48.1046 14.8454Z" fill="#B2B2B2"/>
<path d="M62.3076 14.8454H55.5987L42.9658 27.4068H49.6748L62.3076 14.8454Z" fill="#B2B2B2"/>
<path d="M7.70825 27.4068H14.4886L27.1214 14.8454H20.2697L7.70825 27.4068Z" fill="#B2B2B2"/>
<path d="M34.0443 14.8454H27.4068L14.7739 27.4068H21.4829L34.0443 14.8454Z" fill="#B2B2B2"/>
<path d="M41.1815 14.8454H34.4011L21.7683 27.4068H28.5486L41.1815 14.8454Z" fill="#B2B2B2"/>
<path d="M69.445 14.8454H62.5933L49.9604 27.4068H56.8122L69.445 14.8454Z" fill="#B2B2B2"/>
<path d="M19.9841 14.8454H12.6328C9.20697 18.4853 6.42346 22.7676 4.42505 27.4068H7.42267L19.9841 14.8454Z" fill="#B2B2B2"/>
<path d="M78.2949 27.4068H85.5749C84.8611 25.7653 84.0047 24.1237 83.1482 22.6249L78.2949 27.4068Z" fill="#B2B2B2"/>
<path d="M83.0055 22.4108C82.1491 21.0547 81.2926 19.6987 80.2934 18.414L71.3005 27.4068H78.0095L83.0055 22.4108Z" fill="#B2B2B2"/>
<path d="M76.4394 14.8454H69.7305L57.0977 27.4068H63.8066L76.4394 14.8454Z" fill="#B2B2B2"/>
<path d="M80.2221 18.2712C79.2943 17.0579 78.3664 15.9159 77.3672 14.8454H76.7249L64.092 27.4068H71.0151L80.2221 18.2712Z" fill="#B2B2B2"/>
<path d="M44.9643 90C20.1269 90 0 69.8018 0 45.0357C0 20.2696 20.1983 0 44.9643 0C69.8017 0 89.9286 20.1983 89.9286 44.9643C89.9286 69.7304 69.8017 90 44.9643 90ZM44.9643 1.49881C20.9833 1.49881 1.49881 20.9833 1.49881 44.9643C1.49881 68.9453 20.9833 88.4298 44.9643 88.4298C68.9453 88.4298 88.4298 68.9453 88.4298 44.9643C88.4298 20.9833 68.9453 1.49881 44.9643 1.49881Z" fill="black"/>
</g>
<defs>
<clipPath id="clip0_414_316">
<rect width="90" height="90" fill="white"/>
</clipPath>
</defs>
</svg>
