<svg width="90" height="90" viewBox="0 0 90 90" fill="none" xmlns="http://www.w3.org/2000/svg">
<g clip-path="url(#clip0_414_333)">
<path d="M55.3131 14.8454H48.3901L35.8286 27.4068H42.6803L55.3131 14.8454Z" fill="#B2B2B2"/>
<path d="M48.1047 14.8454H41.4671L28.8342 27.4068H35.5432L48.1047 14.8454Z" fill="#B2B2B2"/>
<path d="M62.3076 14.8454H55.5987L42.9658 27.4068H49.6748L62.3076 14.8454Z" fill="#B2B2B2"/>
<path d="M7.70825 27.4068H14.4886L27.1214 14.8454H20.2697L7.70825 27.4068Z" fill="#B2B2B2"/>
<path d="M34.0443 14.8454H27.4068L14.7739 27.4068H21.4829L34.0443 14.8454Z" fill="#B2B2B2"/>
<path d="M41.1815 14.8454H34.4011L21.7683 27.4068H28.5486L41.1815 14.8454Z" fill="#B2B2B2"/>
<path d="M69.445 14.8454H62.5933L49.9604 27.4068H56.8122L69.445 14.8454Z" fill="#B2B2B2"/>
<path d="M19.9841 14.8454H12.6328C9.20697 18.4853 6.42346 22.7676 4.42505 27.4068H7.42267L19.9841 14.8454Z" fill="#B2B2B2"/>
<path d="M78.2949 27.4068H85.5749C84.8611 25.7653 84.0047 24.1237 83.1482 22.6249L78.2949 27.4068Z" fill="#B2B2B2"/>
<path d="M83.0055 22.4108C82.1491 21.0547 81.2926 19.6987 80.2934 18.414L71.3005 27.4068H78.0095L83.0055 22.4108Z" fill="#B2B2B2"/>
<path d="M76.4394 14.8454H69.7305L57.0977 27.4068H63.8066L76.4394 14.8454Z" fill="#B2B2B2"/>
<path d="M80.2221 18.2712C79.2943 17.0579 78.3664 15.9159 77.3672 14.8454H76.7249L64.092 27.4068H71.0151L80.2221 18.2712Z" fill="#B2B2B2"/>
<path d="M44.9643 28.6201H26.2649V56.5979L37.7558 69.3021L38.184 40.9675H44.9643H51.7447L52.2443 69.3021L63.7352 56.5979V28.6201H44.9643Z" fill="#C6C6C6" stroke="black" stroke-width="2.126" stroke-miterlimit="10"/>
<path d="M3.5686 29.4052H22.4108V50.46C22.4108 50.8882 22.7677 51.245 23.1959 51.245C23.6241 51.245 23.981 50.8882 23.981 50.46V27.9064H4.21095C3.99684 28.406 3.78272 28.9056 3.5686 29.4052Z" fill="black"/>
<path d="M85.7891 27.9064H66.019V50.5313C66.019 50.9596 66.3759 51.3164 66.8041 51.3164C67.2324 51.3164 67.5892 50.9596 67.5892 50.5313V29.4052H86.36C86.2173 28.9056 86.0032 28.406 85.7891 27.9064Z" fill="black"/>
<path d="M45.7493 67.4465H44.2505V6.99445H67.1609L69.4448 8.49326H45.7493V67.4465Z" fill="#F9B347"/>
<path d="M44.9642 89.2149C69.4031 89.2149 89.2148 69.4032 89.2148 44.9643C89.2148 20.5254 69.4031 0.713718 44.9642 0.713718C20.5253 0.713718 0.713623 20.5254 0.713623 44.9643C0.713623 69.4032 20.5253 89.2149 44.9642 89.2149Z" stroke="black" stroke-width="2.126" stroke-miterlimit="10"/>
</g>
<defs>
<clipPath id="clip0_414_333">
<rect width="90" height="90" fill="white"/>
</clipPath>
</defs>
</svg>
