<svg width="80" height="80" viewBox="0 0 80 80" fill="none" xmlns="http://www.w3.org/2000/svg">
<g clip-path="url(#clip0_414_333)">
<path d="M49.1672 13.1959H43.0134L31.8477 24.3616H37.9381L49.1672 13.1959Z" fill="#B2B2B2"/>
<path d="M42.7596 13.1959H36.8596L25.6304 24.3616H31.5939L42.7596 13.1959Z" fill="#B2B2B2"/>
<path d="M55.3846 13.1959H49.4211L38.1919 24.3616H44.1554L55.3846 13.1959Z" fill="#B2B2B2"/>
<path d="M6.85156 24.3616H12.8785L24.1077 13.1959H18.0173L6.85156 24.3616Z" fill="#B2B2B2"/>
<path d="M30.2616 13.1959H24.3615L13.1323 24.3616H19.0958L30.2616 13.1959Z" fill="#B2B2B2"/>
<path d="M36.6058 13.1959H30.5788L19.3496 24.3616H25.3766L36.6058 13.1959Z" fill="#B2B2B2"/>
<path d="M61.7288 13.1959H55.6384L44.4092 24.3616H50.4996L61.7288 13.1959Z" fill="#B2B2B2"/>
<path d="M17.7636 13.1959H11.2291C8.18394 16.4314 5.70972 20.2379 3.93335 24.3616H6.5979L17.7636 13.1959Z" fill="#B2B2B2"/>
<path d="M69.5955 24.3616H76.0665C75.4321 22.9025 74.6708 21.4433 73.9095 20.111L69.5955 24.3616Z" fill="#B2B2B2"/>
<path d="M73.7826 19.9207C73.0213 18.7153 72.26 17.5099 71.3718 16.368L63.3782 24.3616H69.3417L73.7826 19.9207Z" fill="#B2B2B2"/>
<path d="M67.9461 13.1959H61.9826L50.7534 24.3616H56.7169L67.9461 13.1959Z" fill="#B2B2B2"/>
<path d="M71.3085 16.2411C70.4838 15.1626 69.659 14.1475 68.7709 13.1959H68.1999L56.9707 24.3616H63.1245L71.3085 16.2411Z" fill="#B2B2B2"/>
<path d="M39.9682 25.4401H23.3464V50.3093L33.5606 61.6019L33.9412 36.4155H39.9682H45.9951L46.4392 61.6019L56.6533 50.3093V25.4401H39.9682Z" fill="#C6C6C6" stroke="black" stroke-width="2.126" stroke-miterlimit="10"/>
<path d="M3.17212 26.138H19.9207V44.8533C19.9207 45.2339 20.2379 45.5512 20.6186 45.5512C20.9992 45.5512 21.3164 45.2339 21.3164 44.8533V24.8057H3.74309C3.55277 25.2498 3.36244 25.6939 3.17212 26.138Z" fill="black"/>
<path d="M76.2569 24.8057H58.6836V44.9167C58.6836 45.2974 59.0008 45.6146 59.3815 45.6146C59.7621 45.6146 60.0793 45.2974 60.0793 44.9167V26.138H76.7645C76.6376 25.6939 76.4473 25.2498 76.2569 24.8057Z" fill="black"/>
<path d="M40.6663 59.9524H39.334V6.21729H59.6988L61.7289 7.54956H40.6663V59.9524Z" fill="#F9B347"/>
<path d="M39.9684 79.3021C61.6919 79.3021 79.3022 61.6918 79.3022 39.9683C79.3022 18.2448 61.6919 0.634415 39.9684 0.634415C18.2449 0.634415 0.634521 18.2448 0.634521 39.9683C0.634521 61.6918 18.2449 79.3021 39.9684 79.3021Z" stroke="black" stroke-width="2.126" stroke-miterlimit="10"/>
</g>
<defs>
<clipPath id="clip0_414_333">
<rect width="80" height="80" fill="white"/>
</clipPath>
</defs>
</svg>
